<svg width="23" height="23" viewBox="0 0 23 23" fill="none" xmlns="http://www.w3.org/2000/svg">
<path d="M16.3183 11.4757C16.3183 12.7213 15.8235 13.9159 14.9427 14.7967C14.0619 15.6774 12.8673 16.1723 11.6217 16.1723C10.3761 16.1723 9.18151 15.6774 8.30072 14.7967C7.41994 13.9159 6.92512 12.7213 6.92512 11.4757C6.92512 10.23 7.41994 9.03544 8.30072 8.15466C9.18151 7.27387 10.3761 6.77906 11.6217 6.77906C12.8673 6.77906 14.0619 7.27387 14.9427 8.15466C15.8235 9.03544 16.3183 10.23 16.3183 11.4757ZM16.3183 11.4757C16.3183 13.2051 17.3693 14.6067 18.6666 14.6067C19.9639 14.6067 21.0149 13.2051 21.0149 11.4757C21.0149 9.30249 20.2614 7.19656 18.8827 5.51669C17.5041 3.83682 15.5856 2.68695 13.4542 2.26301C11.3228 1.83906 9.11029 2.16727 7.19373 3.19171C5.27718 4.21614 3.77513 5.87343 2.94351 7.88118C2.11189 9.88893 2.00215 12.1229 2.63301 14.2025C3.26386 16.2821 4.59626 18.0786 6.40319 19.2859C8.21012 20.4933 10.3798 21.0367 12.5425 20.8237C14.7052 20.6107 16.7271 19.6544 18.2638 18.1177M16.3183 11.4757V7.56182" stroke="black" stroke-width="2.50485" stroke-linecap="round" stroke-linejoin="round"/>
</svg>
