<?xml version="1.0" encoding="UTF-8"?><svg id="_Layer_" xmlns="http://www.w3.org/2000/svg" width="93.79" height="95.04" viewBox="0 0 93.79 95.04"><defs><style>.cls-1{fill:#fff;}.cls-2{fill:#071143;}</style></defs><rect class="cls-1" x="13.28" y="52.04" width="56.33" height="33"/><g><path class="cls-2" d="m40.61,60.42h-1.72v10.78h1.72c.59,0,1.06-.48,1.06-1.07v-8.65c0-.59-.48-1.06-1.06-1.06Z"/><path class="cls-2" d="m25.49,0L0,95.04h68.32L93.79,0H25.49Zm4.32,65.99h-5.92v-4.5c0-.59-.48-1.06-1.07-1.06h-.63c-.59,0-1.06.48-1.06,1.06v15.81c0,.59.47,1.07,1.06,1.07h.63c.59,0,1.07-.48,1.07-1.07v-4.71h5.92v6.22c0,2.31-1.88,4.19-4.19,4.19h-6.2c-2.31,0-4.19-1.88-4.19-4.19v-18.78c0-2.32,1.88-4.19,4.19-4.19h6.2c2.31,0,4.19,1.87,4.19,4.19v5.96Zm17.75,5.58c0,2.32-1.87,4.2-4.18,4.2h-4.49v7.23h-5.9v-27.16h10.4c2.31,0,4.18,1.87,4.18,4.19v11.54Zm17.58,11.44h-5.9v-11.5h-2.95v11.5h-5.9v-27.16h5.9v11.08h2.95v-11.08h5.9v27.16Z"/></g></svg>