<svg width="30" height="30" viewBox="0 0 30 30" fill="none" xmlns="http://www.w3.org/2000/svg">
<path d="M2.96526 28.5416C6.08862 28.5416 9.17451 27.8609 12.2229 26.4996C15.2713 25.1384 18.0449 23.2079 20.5436 20.7082C23.0422 18.2085 24.9722 15.4349 26.3335 12.3875C27.6948 9.34013 28.376 6.25425 28.377 3.12989C28.377 2.68012 28.227 2.30532 27.9272 2.00547C27.6273 1.70563 27.2525 1.55571 26.8028 1.55571H20.731C20.3811 1.55571 20.0688 1.67465 19.7939 1.91252C19.5191 2.1504 19.3567 2.43125 19.3067 2.75508L18.3322 8.00233C18.2822 8.40213 18.2947 8.73945 18.3697 9.0143C18.4447 9.28916 18.5821 9.52654 18.782 9.72643L22.4176 13.3995C21.9178 14.324 21.3246 15.2171 20.638 16.0786C19.9514 16.9402 19.1953 17.7712 18.3697 18.5718C17.5951 19.3464 16.783 20.065 15.9335 20.7277C15.0839 21.3903 14.1844 21.996 13.2349 22.5447L9.71173 19.0216C9.48685 18.7967 9.193 18.6283 8.83019 18.5163C8.46738 18.4044 8.11156 18.3729 7.76275 18.4219L2.59045 19.4713C2.24064 19.5713 1.95329 19.7527 1.72841 20.0155C1.50352 20.2784 1.39108 20.5718 1.39108 20.8956V26.9674C1.39108 27.4172 1.541 27.792 1.84085 28.0918C2.14069 28.3917 2.51549 28.5416 2.96526 28.5416ZM23.8418 10.551L21.3681 8.07729L22.0053 4.55414H25.341C25.2161 5.5786 25.0412 6.59057 24.8163 7.59005C24.5914 8.58953 24.2666 9.57651 23.8418 10.551ZM10.4239 23.969C9.44936 24.3938 8.45588 24.7311 7.44341 24.9809C6.43094 25.2308 5.41298 25.3932 4.38951 25.4682V22.1699L7.91267 21.4578L10.4239 23.969Z" fill="white"/>
</svg>
