<svg width="23" height="23" viewBox="0 0 23 23" fill="none" xmlns="http://www.w3.org/2000/svg">
<path d="M11.3932 5.21359V11.4757H16.0898M20.7864 11.4757C20.7864 12.7093 20.5434 13.9307 20.0714 15.0703C19.5993 16.21 18.9074 17.2455 18.0352 18.1177C17.163 18.99 16.1275 19.6819 14.9878 20.1539C13.8482 20.626 12.6267 20.8689 11.3932 20.8689C10.1597 20.8689 8.93822 20.626 7.79858 20.1539C6.65894 19.6819 5.62344 18.99 4.75121 18.1177C3.87897 17.2455 3.18707 16.21 2.71501 15.0703C2.24296 13.9307 2 12.7093 2 11.4757C2 8.98449 2.98964 6.59529 4.75121 4.83373C6.51277 3.07216 8.90197 2.08252 11.3932 2.08252C13.8844 2.08252 16.2736 3.07216 18.0352 4.83373C19.7968 6.59529 20.7864 8.98449 20.7864 11.4757Z" stroke="black" stroke-width="2.50485" stroke-linecap="round" stroke-linejoin="round"/>
</svg>
