<svg width="23" height="19" viewBox="0 0 23 19" fill="none" xmlns="http://www.w3.org/2000/svg">
<path d="M21.7001 3.99625V14.955C21.7001 15.5778 21.4527 16.1751 21.0123 16.6155C20.5719 17.0559 19.9746 17.3033 19.3518 17.3033H3.69645C3.07364 17.3033 2.47634 17.0559 2.03595 16.6155C1.59555 16.1751 1.34814 15.5778 1.34814 14.955V3.99625M21.7001 3.99625C21.7001 3.37344 21.4527 2.77614 21.0123 2.33575C20.5719 1.89536 19.9746 1.64795 19.3518 1.64795H3.69645C3.07364 1.64795 2.47634 1.89536 2.03595 2.33575C1.59555 2.77614 1.34814 3.37344 1.34814 3.99625M21.7001 3.99625V4.24987C21.7001 4.6508 21.5975 5.04506 21.402 5.3951C21.2066 5.74515 20.9247 6.03931 20.5833 6.24958L12.7557 11.0662C12.3854 11.2943 11.959 11.4151 11.5241 11.4151C11.0892 11.4151 10.6629 11.2943 10.2926 11.0662L2.46489 6.25062C2.12352 6.04035 1.84167 5.74619 1.64619 5.39615C1.45071 5.0461 1.3481 4.65184 1.34814 4.25091V3.99625" stroke="black" stroke-width="2.50485" stroke-linecap="round" stroke-linejoin="round"/>
</svg>
