<svg width="24" height="23" viewBox="0 0 24 23" fill="none" xmlns="http://www.w3.org/2000/svg">
<path d="M1.54248 5.99641C1.54248 14.6423 8.5519 21.6517 17.1978 21.6517H19.5461C20.1689 21.6517 20.7662 21.4043 21.2066 20.9639C21.647 20.5236 21.8944 19.9263 21.8944 19.3034V17.8715C21.8944 17.333 21.5281 16.8633 21.0052 16.7328L16.389 15.5785C15.9297 15.4637 15.4476 15.6359 15.1647 16.0137L14.1523 17.3632C13.858 17.7557 13.3497 17.9289 12.8895 17.7598C11.1808 17.1317 9.62915 16.1396 8.34189 14.8523C7.05463 13.5651 6.06257 12.0134 5.4344 10.3048C5.26532 9.84449 5.43857 9.33621 5.831 9.04189L7.18049 8.02951C7.55935 7.74667 7.73051 7.26345 7.61571 6.80527L6.46139 2.18903C6.39787 1.93509 6.25132 1.70966 6.04501 1.54855C5.83871 1.38744 5.58448 1.29989 5.32272 1.2998H3.89078C3.26797 1.2998 2.67067 1.54721 2.23028 1.98761C1.78989 2.428 1.54248 3.0253 1.54248 3.64811V5.99641Z" stroke="black" stroke-width="2.50485" stroke-linecap="round" stroke-linejoin="round"/>
</svg>
